# AST/ASF file generated using VICON BodyLanguage
# -----------------------------------------------
:version 1.10
:name VICON
:units
  mass 1.0
  length 0.45
  angle deg
:documentation
   .ast/.asf automatically generated from VICON data using
   VICON BodyBuilder and BodyLanguage model FoxedUp or BRILLIANT.MOD
:root
   order TX TY TZ RX RY RZ
   axis XYZ
   position 0 0 0  
   orientation 0 0 0 
:bonedata
  begin
     id 1 
     name lhipjoint
     direction 0.558404 -0.748506 0.357664 
     length 2.4234 
     axis 0 0 0  XYZ
  end
  begin
     id 2 
     name lfemur
     direction 0.34202 -0.939693 0  
     length 7.14567  
     axis 0 0 20  XYZ
    dof rx ry rz
    limits (-160.0 20.0)
           (-70.0 70.0)
           (-60.0 70.0)
  end
  begin
     id 3 
     name ltibia
     direction 0.34202 -0.939693 0   
     length 8.13956   
     axis 0 0 20   XYZ
    dof rx
    limits (-10.0 170.0)
  end
  begin
     id 4 
     name lfoot
     direction 0.0791314 -0.217412 0.972867   
     length 2.00134   
     axis -90 7.62852e-016 20   XYZ
    dof rx rz
    limits (-45.0 90.0)
           (-70.0 20.0)
  end
  begin
     id 5 
     name ltoes
     direction 1.53547e-011 -4.21922e-011 1   
     length 1.00735   
     axis -90 7.62852e-016 20   XYZ
    dof rx
    limits (-90.0 20.0)
  end
  begin
     id 6 
     name rhipjoint
     direction -0.496392 -0.78327 0.374276   
     length 2.31584  
     axis 0 0 0  XYZ 
  end
  begin
     id 7 
     name rfemur
     direction -0.34202 -0.939693 0   
     length 7.47417   
     axis 0 0 -20   XYZ
    dof rx ry rz
    limits (-160.0 20.0)
           (-70.0 70.0)
           (-70.0 60.0)
  end
  begin
     id 8 
     name rtibia
     direction -0.34202 -0.939693 0   
     length 7.69071   
     axis 0 0 -20   XYZ
    dof rx
    limits (-10.0 170.0)
 end
 begin
     id 9 
     name rfoot
     direction -0.103069 -0.28318 0.953512   
     length 2.16135  
     axis -90 -7.62852e-016 -20   XYZ
    dof rx rz
    limits (-45.0 90.0)
           (-20.0 70.0)
  end
  begin
     id 10 
     name rtoes
     direction -1.53581e-011 -4.21904e-011 1   
     length 1.07867   
     axis -90 -7.62852e-016 -20   XYZ
    dof rx
    limits (-90.0 20.0)
  end
  begin
     id 11 
     name lowerback
     direction -0.0258961 0.994776 -0.0987407   
     length 2.19412   
     axis 0 0 0   XYZ
    dof rx ry rz
    limits (-20.0 45.0)
           (-30.0 30.0)
           (-30.0 30.0)
  end
  begin
     id 12 
     name upperback
     direction 0.0402454 0.999185 0.00320666   
     length 2.18445   
     axis 0 0 0   XYZ
    dof rx ry rz
    limits (-20.0 45.0)
           (-30.0 30.0)
           (-30.0 30.0)
  end
  begin
     id 13 
     name thorax
     direction 0.0519376 0.997415 0.0496558   
     length 2.21487   
     axis 0 0 0   XYZ
    dof rx ry rz
    limits (-20.0 45.0)
           (-30.0 30.0)
           (-30.0 30.0)
  end
  begin
     id 14 
     name lowerneck
     direction -0.0921276 0.983211 0.157506   
     length 1.61201   
     axis 0 0 0   XYZ
    dof rx ry rz
    limits (-20.0 45.0)
           (-30.0 30.0)
           (-30.0 30.0)
  end
  begin
     id 15 
     name upperneck
     direction 0.0820814 0.98162 -0.172292   
     length 1.65275   
     axis 0 0 0   XYZ
    dof rx ry rz
    limits (-20.0 45.0)
           (-30.0 30.0)
           (-30.0 30.0)
  end
  begin
     id 16
     name head
     direction 0.0336554 0.996413 -0.0776455  
     length 1.66415  
     axis 0 0 0   XYZ
    dof rx ry rz
    limits (-20.0 45.0)
           (-30.0 30.0)
           (-30.0 30.0)
  end
  begin
     id 17 
     name lclavicle
     direction 0.94696 0.284418 -0.149576  
     length 3.41447  
     axis 0 0 0   XYZ
    dof ry rz
    limits (-20.0 10.0)
           (0.0 20.0)
  end
  begin
     id 18 
     name lhumerus
     direction 1 -0.000130264 -9.81312e-005   
     length 5.19964   
     axis 180 -30 -90   XYZ
    dof rx ry rz
    limits (-60.0 90.0)
           (-90.0 90.0)
           (-90.0 90.0)
  end
  begin
     id 19
     name lradius
     direction 1 -4.48961e-011 1.43854e-026   
     length 3.32189   
     axis 180 -30 -90   XYZ
    dof rx
    limits (-10.0 170.0)
  end
  begin
     id 20
     name lwrist
     direction 1 -4.48958e-011 3.1502e-026   
     length 1.66095   
     axis -1.97692e-014 90 90   XYZ
    dof ry
    limits (-180.0 0.0)
 end
  begin
     id 21 
     name lhand
     direction 1 -4.48927e-011 6.3004e-026   
     length 0.645616   
     axis -4.02019e-014 90 90   XYZ
    dof rx rz
    limits (-90.0 90.0)
           (-45.0 45.0)
  end
  begin
     id 22 
     name lfingers
     direction 1 -4.4904e-011 1.26008e-025   
     length 0.520512   
     axis -8.04039e-014 90 90   XYZ
    dof rx
    limits (0.0 90.0)
  end
  begin
     id 23
     name lthumb
     direction 0.707107 -6.34947e-011 0.707107   
     length 0.747354   
     axis -90 45 2.85299e-015   XYZ
    dof rx rz
    limits (-45.0 45.0)
           (-45.0 45.0)
  end
  begin
     id 24 
     name rclavicle
     direction -0.909391 0.383475 -0.161107   
     length 3.25176  
     axis 0 0 0   XYZ 
    dof ry rz
    limits (-10.0 20.0)
           (-20.0 0.0)
  end
  begin
     id 25 
     name rhumerus
     direction -1 -4.48965e-011 -1.81384e-027  
     length 5.6595   
     axis 180 30 90   XYZ
    dof rx ry rz
    limits (-90.0 60.0)
           (-90.0 90.0)
           (-90.0 90.0)
  end
  begin
     id 26 
     name rradius
     direction -1 -4.48996e-011 -8.09397e-027   
     length 3.37604   
     axis 180 30 90   XYZ
    dof rx
    limits (-10.0 170.0)
  end
  begin
     id 27 
     name rwrist
     direction -1 -4.48927e-011 -1.56669e-026   
     length 1.68802   
     axis 1.21142e-014 -90 -90   XYZ
    dof ry
    limits (-180.0 0.0)
  end
  begin
     id 28
     name rhand
     direction -1 -4.48912e-011 -3.13339e-026   
     length 0.824702   
     axis 1.99937e-014 -90 -90   XYZ
    dof rx rz
    limits (-90.0 90.0)
           (-45.0 45.0)
  end
  begin
     id 29
     name rfingers
     direction -1 -4.49011e-011 -6.26677e-026   
     length 0.664896   
     axis 3.99874e-014 -90 -90   XYZ
    dof rx
    limits (0.0 90.0)
  end
  begin
     id 30
     name rthumb
     direction -0.707107 -6.34931e-011 0.707107   
     length 0.954662   
     axis -90 -45 -2.85299e-015   XYZ
    dof rx rz
    limits (-45.0 45.0)
           (-45.0 45.0)
  end
:hierarchy
  begin
    root lhipjoint rhipjoint lowerback
    lhipjoint lfemur
    lfemur ltibia
    ltibia lfoot
    lfoot ltoes
    rhipjoint rfemur
    rfemur rtibia
    rtibia rfoot
    rfoot rtoes
    lowerback upperback
    upperback thorax
    thorax lowerneck lclavicle rclavicle
    lowerneck upperneck
    upperneck head
    lclavicle lhumerus
    lhumerus lradius
    lradius lwrist
    lwrist lhand lthumb
    lhand lfingers
    rclavicle rhumerus
    rhumerus rradius
    rradius rwrist
    rwrist rhand rthumb
    rhand rfingers
  end

#!OML:ASF F:\VICON\USERDATA\INSTALL\rory3\rory3.ASF
:FULLY-SPECIFIED
:DEGREES
156
root 11.1956 17.5386 -33.3856 14.4417 -26.8742 -3.15391
lowerback 9.00037 -0.0769205 -2.82892
upperback -1.35147 -0.103768 5.35677
thorax -6.48533 0.15611 7.32311
lowerneck -11.0084 -2.61852 -16.3098
upperneck 19.0212 -3.13337 12.8017
head 8.12159 -1.49892 6.78755
rclavicle -3.71727e-014 7.87187e-014
rhumerus -30.9747 -7.53025 -72.2064
rradius 33.6522
rwrist -14.9725
rhand -14.9896 16.1788
rfingers 7.12502
rthumb 11.1748 -13.5037
lclavicle -3.71727e-014 7.87187e-014
lhumerus -33.0392 27.7213 80.8247
lradius 24.2504
lwrist -11.2853
lhand -5.89188 30.4264
lfingers 7.12502
lthumb 19.9363 59.4238
rfemur -4.92352 7.36856 20.2434
rtibia 35.8217
rfoot -23.0395 -6.6225
rtoes -0.3955
lfemur -40.4008 -10.4515 -9.64715
ltibia 48.8648
lfoot -18.453 0.307245
ltoes -11.9012
157
root 11.198 17.5208 -33.2467 14.4466 -27.1953 -3.07326
lowerback 9.31342 -0.801743 -4.09154
upperback -1.715 -1.16257 6.32338
thorax -6.86453 -0.273957 9.31667
lowerneck -10.164 -1.61757 -17.5327
upperneck 19.2417 -1.57334 12.339
head 7.79809 -0.917874 6.98396
rclavicle 1.92821e-014 -4.6118e-014
rhumerus -31.2034 -3.8303 -71.8478
rradius 34.4467
rwrist -16.092
rhand -14.6865 16.3021
rfingers 7.12502
rthumb 11.4671 -13.3643
lclavicle 1.92821e-014 -4.6118e-014
lhumerus -34.9609 30.5211 80.132
lradius 24.3814
lwrist -11.2663
lhand -6.03901 30.3668
lfingers 7.12502
lthumb 19.7949 59.3788
rfemur -5.16923 7.4208 19.8199
rtibia 36.8483
rfoot -22.2847 -6.54654
rtoes -2.56854
lfemur -40.1493 -10.1539 -10.1003
ltibia 49.2184
lfoot -18.8304 -0.202288
ltoes -9.20237
158
root 11.1996 17.5146 -33.1071 14.3868 -27.4716 -2.99471
lowerback 9.43331 -0.0973308 -3.38646
upperback -1.43284 -0.188705 5.47468
thorax -6.80887 0.151573 7.80657
lowerneck -11.0899 -2.58606 -15.6925
upperneck 19.608 -3.00979 11.6944
head 8.29291 -1.50558 6.31541
rclavicle -5.06901e-014 -1.03368e-014
rhumerus -31.5864 -7.03527 -71.7364
rradius 34.997
rwrist -16.0531
rhand -14.8306 16.3771
rfingers 7.12502
rthumb 11.3281 -13.297
lclavicle -5.06901e-014 -1.03368e-014
lhumerus -33.3055 27.9309 80.7236
lradius 24.069
lwrist -10.7653
lhand -5.63846 31.1365
lfingers 7.12502
lthumb 20.1799 60.1084
rfemur -5.35402 7.47399 19.4164
rtibia 37.7866
rfoot -21.4001 -6.24505
rtoes -3.15398
lfemur -39.6818 -9.94104 -10.5631
ltibia 49.4181
lfoot -19.1939 -0.429941
ltoes -7.01801
159
root 11.1968 17.5162 -32.9693 14.4798 -27.7109 -2.94543
lowerback 9.41202 1.19282 -2.15421
upperback -0.599118 1.57222 3.97477
thorax -6.0969 0.908216 5.18026
lowerneck -14.3813 -4.39273 -12.6808
upperneck 20.432 -5.71921 11.3214
head 9.50642 -2.49591 5.36198
rclavicle -3.4191e-014 -3.73715e-014
rhumerus -31.1691 -13.2811 -71.8452
rradius 35.3222
rwrist -15.5697
rhand -14.9669 16.4918
rfingers 7.12502
rthumb 11.1967 -13.1895
lclavicle -3.4191e-014 -3.73715e-014
lhumerus -29.6252 23.4895 81.8874
lradius 23.6106
lwrist -10.5832
lhand -5.09452 32.0095
lfingers 7.12502
lthumb 20.7026 60.9252
rfemur -5.75988 7.53415 19.0117
rtibia 38.8291
rfoot -20.0911 -5.59609
rtoes -1.52127
lfemur -39.4514 -9.7657 -10.8503
ltibia 49.5159
lfoot -19.2875 -1.35318
ltoes -7.94188
